<svg version="1.1" id="Layer_1" xmlns="http://www.w3.org/2000/svg" xmlns:xlink="http://www.w3.org/1999/xlink" x="0px" y="0px"
	 width="100%" viewBox="0 0 512 512" enable-background="new 0 0 512 512" xml:space="preserve">
<path fill="#000000" opacity="1.000000" stroke="none" 
	d="
M1.000000,180.000000 
	C1.000000,120.000000 1.000000,60.500000 1.000000,1.000000 
	C171.666672,1.000000 342.333344,1.000000 513.000000,1.000000 
	C513.000000,171.666672 513.000000,342.333344 513.000000,513.000000 
	C342.333344,513.000000 171.666672,513.000000 1.000000,513.000000 
	C1.000000,402.166656 1.000000,291.333344 1.000000,180.000000 
M488.999542,186.500000 
	C488.999542,164.740540 488.999542,142.981064 488.999542,121.284302 
	C366.023499,121.284302 243.634491,121.284302 121.288971,121.284302 
	C121.288971,158.634872 121.288971,195.700882 121.288971,232.700348 
	C126.652023,232.700348 131.721954,232.700348 137.196808,232.700348 
	C137.196808,200.667938 137.196808,168.932877 137.196808,137.295929 
	C249.333206,137.295929 361.056976,137.295929 472.706055,137.295929 
	C472.706055,211.987457 472.706055,286.382202 472.706055,361.186951 
	C435.345520,361.186951 398.277710,361.186951 361.309937,361.186951 
	C361.309937,366.674377 361.309937,371.743713 361.309937,376.999542 
	C363.098236,376.999542 364.581970,376.999542 366.065704,376.999542 
	C403.226349,376.999542 440.386993,377.001648 477.547638,376.998047 
	C486.702301,376.997131 488.997833,374.686035 488.998230,365.471191 
	C489.000824,306.147461 488.999542,246.823730 488.999542,186.500000 
M235.610245,372.109894 
	C260.177887,346.739532 264.017944,310.022064 245.095123,281.418457 
	C226.395157,253.151794 190.829025,241.780670 159.387726,253.722702 
	C127.272964,265.920532 111.576111,298.288422 113.523521,320.897675 
	C126.326584,321.593170 136.898865,326.675323 144.870667,336.915100 
	C152.896927,347.224823 153.619415,359.248718 152.895798,371.544830 
	C161.616043,376.154785 168.143463,382.578064 172.560562,391.158478 
	C173.020599,392.052155 174.512314,392.868958 175.572662,392.932556 
	C198.174210,394.288269 218.457825,388.743988 235.610245,372.109894 
M120.999008,101.325325 
	C120.160904,105.875122 123.418076,104.992783 125.925827,104.992981 
	C245.374847,105.002342 364.823853,105.001152 484.272888,105.001152 
	C485.719940,105.001152 487.166992,105.001152 488.963043,105.001152 
	C488.963043,91.218437 489.091003,77.928452 488.890381,64.643417 
	C488.824280,60.266762 486.006653,57.318344 481.648468,57.142574 
	C473.555023,56.816158 465.439026,57.049019 456.998199,57.049019 
	C456.998199,59.668816 457.013275,61.802162 456.995758,63.935249 
	C456.873901,78.793091 446.706421,88.900513 431.770630,88.993462 
	C426.939545,89.023529 422.107208,89.058128 417.277039,88.984909 
	C403.575287,88.777229 393.283600,78.584991 393.011749,64.989815 
	C392.959869,62.395649 393.004303,59.799557 393.004303,57.361382 
	C387.264801,57.361382 382.199829,57.361382 376.997986,57.361382 
	C376.997986,59.882343 377.017578,62.041466 376.994843,64.200142 
	C376.841736,78.737915 366.631531,88.876541 352.005493,88.992073 
	C347.174530,89.030235 342.342407,89.047600 337.511871,88.987831 
	C323.499084,88.814430 313.233002,78.635788 313.008972,64.724968 
	C312.969543,62.278522 313.003357,59.830894 313.003357,57.279625 
	C307.441101,57.279625 302.379333,57.279625 296.997406,57.279625 
	C296.997406,59.859566 297.023895,62.162678 296.993042,64.465019 
	C296.802429,78.690704 286.560730,88.849083 272.240356,88.990448 
	C267.409546,89.038139 262.577484,89.038620 257.746704,88.990349 
	C243.424774,88.847260 233.188034,78.686569 233.006821,64.460091 
	C232.975983,62.038857 233.002472,59.616894 233.002472,57.371826 
	C227.242874,57.371826 222.174896,57.371826 216.997955,57.371826 
	C216.997955,59.905964 217.018097,62.068298 216.994720,64.230164 
	C216.839844,78.553780 206.695526,88.814339 192.475174,88.987610 
	C187.478058,89.048508 182.478897,89.050072 177.481827,88.987106 
	C163.479767,88.810677 153.226990,78.618423 153.008713,64.694923 
	C152.970413,62.251541 153.003296,59.807045 153.003296,57.535927 
	C152.191711,57.254070 151.893845,57.061474 151.595001,57.059948 
	C145.098465,57.026756 138.601822,56.999641 132.105209,57.002605 
	C123.515404,57.006519 121.012817,59.455288 121.002197,67.873154 
	C120.988525,78.701843 120.998856,89.530571 120.999008,101.325325 
M272.370331,311.199249 
	C275.577209,344.911835 262.683105,371.646118 236.263519,392.805603 
	C257.115204,392.805603 277.240234,392.805603 297.420013,392.805603 
	C302.990356,366.725098 318.776459,350.997101 345.001251,345.375977 
	C345.001251,338.195190 344.868774,331.049866 345.069458,323.913879 
	C345.144867,321.232025 344.209778,319.833832 341.992157,318.367035 
	C327.442017,308.743164 317.585663,295.415436 314.663910,278.251190 
	C313.063660,268.850464 314.377869,258.953613 314.377869,249.283310 
	C288.589478,249.283310 262.713989,249.283310 236.030579,249.283310 
	C256.702606,265.117859 269.042175,285.052582 272.370331,311.199249 
M104.979347,391.499969 
	C104.979240,396.997803 104.988075,402.495667 104.977013,407.993469 
	C104.958984,416.952698 107.607300,425.076996 113.038139,432.157288 
	C118.914497,439.818420 124.978867,447.340210 131.154999,454.761536 
	C132.137527,455.942139 134.135132,456.900665 135.668350,456.907806 
	C163.156433,457.035522 190.645370,457.026581 218.133682,456.927734 
	C219.574860,456.922577 221.513412,456.268890 222.371918,455.221619 
	C229.124466,446.983826 235.891449,438.739502 242.204636,430.166260 
	C246.686295,424.080261 248.644638,416.948212 248.799255,409.301941 
	C224.635956,409.301941 200.898636,409.301941 177.149261,409.301941 
	C177.018158,412.014404 176.901672,414.424347 176.793640,416.659180 
	C171.265884,416.659180 166.192749,416.659180 160.893417,416.659180 
	C162.471954,398.378967 154.182510,387.206146 136.991043,382.699280 
	C136.991043,375.031647 137.105576,367.870331 136.965286,360.714050 
	C136.731613,348.793121 128.119400,339.024323 116.433357,337.204071 
	C108.972862,336.042023 105.025375,339.392059 105.005653,347.017944 
	C104.968163,361.511871 104.985420,376.005981 104.979347,391.499969 
M36.671806,348.687042 
	C56.684910,356.729736 68.232147,371.696899 72.470497,392.677673 
	C77.957489,392.677673 83.348915,392.677673 89.000595,392.677673 
	C89.000595,377.054474 89.067459,361.752960 88.969475,346.452515 
	C88.927048,339.826508 90.923759,334.114014 95.177727,329.010651 
	C96.302399,327.661438 97.015022,325.510132 96.997841,323.736053 
	C96.709076,293.928955 108.338799,269.850342 131.538895,251.280136 
	C132.230209,250.726791 133.294937,250.639984 134.185562,250.335648 
	C133.781845,249.894516 133.378128,249.453400 132.974411,249.012268 
	C113.326416,249.012268 93.678413,249.010010 74.030418,249.025528 
	C73.552673,249.025909 73.075089,249.223816 72.358284,249.382553 
	C70.299576,261.270050 65.210396,271.725708 56.656582,280.356842 
	C47.976517,289.115326 37.374931,294.263336 25.225647,296.401245 
	C25.225647,312.941498 25.225647,329.206604 25.225647,345.406738 
	C28.956375,346.428162 32.459618,347.387299 36.671806,348.687042 
M424.260284,257.358673 
	C420.335266,232.087250 395.953949,213.655869 371.284180,217.310760 
	C344.472626,221.282974 325.531036,245.397415 329.317261,270.738556 
	C333.321564,297.539307 357.479401,316.488586 382.771027,312.667328 
	C410.113007,308.536285 428.250214,284.836823 424.260284,257.358673 
M457.000977,244.500000 
	C457.000977,235.408554 457.000977,226.317108 457.000977,217.303879 
	C444.386414,217.303879 432.360992,217.303879 420.269775,217.303879 
	C420.373535,217.742584 420.359741,217.924393 420.443237,218.003494 
	C452.440094,248.316452 445.338440,297.721008 411.088470,319.095154 
	C410.220856,319.636627 409.123322,320.721497 409.106476,321.572144 
	C408.953339,329.322510 409.016571,337.077148 409.016571,344.681946 
	C425.366302,344.681946 441.092834,344.681946 457.000977,344.681946 
	C457.000977,311.408813 457.000977,278.454407 457.000977,244.500000 
M286.605225,200.999390 
	C300.683319,200.999390 314.761414,200.999390 328.669617,200.999390 
	C328.669617,184.614746 328.669617,168.887161 328.669617,153.332520 
	C312.610443,153.332520 296.882782,153.332520 281.157837,153.332520 
	C281.157837,169.272827 281.157837,184.880737 281.157837,200.999390 
	C282.732666,200.999390 284.181183,200.999390 286.605225,200.999390 
M345.000580,172.500427 
	C345.000580,181.924469 345.000580,191.348495 345.000580,200.706177 
	C361.314117,200.706177 377.039459,200.706177 392.706238,200.706177 
	C392.706238,184.686020 392.706238,168.960663 392.706238,153.293701 
	C376.686127,153.293701 360.960785,153.293701 345.000580,153.293701 
	C345.000580,159.556839 345.000580,165.528732 345.000580,172.500427 
M456.999420,187.491776 
	C456.999420,176.070328 456.999420,164.648880 456.999420,153.295074 
	C440.683716,153.295074 424.958160,153.295074 409.295258,153.295074 
	C409.295258,169.316696 409.295258,185.042252 409.295258,200.704529 
	C425.317108,200.704529 441.042694,200.704529 456.999420,200.704529 
	C456.999420,196.437317 456.999420,192.462906 456.999420,187.491776 
M264.999420,182.499359 
	C264.999420,172.742386 264.999420,162.985428 264.999420,153.293625 
	C248.686295,153.293625 232.960922,153.293625 217.293594,153.293625 
	C217.293594,169.313614 217.293594,185.039001 217.293594,200.706421 
	C233.313644,200.706421 249.038956,200.706421 264.999420,200.706421 
	C264.999420,194.776489 264.999420,189.137604 264.999420,182.499359 
M200.999390,178.499954 
	C200.999390,170.075012 200.999390,161.650055 200.999390,153.294647 
	C184.684174,153.294647 168.958801,153.294647 153.294586,153.294647 
	C153.294586,169.315765 153.294586,185.041061 153.294586,200.705505 
	C169.315521,200.705505 185.040894,200.705505 200.999390,200.705505 
	C200.999390,193.442154 200.999390,186.471008 200.999390,178.499954 
M147.500000,473.000671 
	C138.749481,473.000671 129.998947,473.000671 121.343834,473.000671 
	C121.343834,478.692627 121.343834,483.747375 121.343834,488.685486 
	C158.704819,488.685486 195.721954,488.685486 232.656479,488.685486 
	C232.656479,483.309326 232.656479,478.251831 232.656479,473.000671 
	C204.376099,473.000671 176.438049,473.000671 147.500000,473.000671 
M174.493027,72.559410 
	C180.796524,72.694199 187.109711,73.099251 193.400299,72.873787 
	C197.999893,72.708931 200.827347,69.739021 200.914154,65.122910 
	C201.114288,54.481064 201.092621,43.831448 200.939926,33.188148 
	C200.868515,28.210291 197.725281,25.209736 192.721619,25.042456 
	C187.903091,24.881365 183.074249,24.941526 178.251572,25.013672 
	C172.037201,25.106642 169.069733,28.013369 169.019852,34.201382 
	C168.940750,44.014744 169.039978,53.829479 168.977875,63.643089 
	C168.953751,67.457008 170.112045,70.483734 174.493027,72.559410 
M410.127014,69.014412 
	C412.813477,70.343330 415.393188,72.432632 418.210724,72.828293 
	C422.778168,73.469696 427.503540,73.084892 432.158691,72.977829 
	C437.784485,72.848457 440.892853,69.906494 440.959473,64.372643 
	C441.083588,54.060955 441.090576,43.745373 440.951630,33.434032 
	C440.880676,28.169943 437.766022,25.177694 432.468750,25.033730 
	C427.482208,24.898209 422.486053,24.896509 417.499634,25.034710 
	C412.210754,25.181293 409.181580,28.186625 409.037659,33.457935 
	C408.892487,38.776993 408.895874,44.105499 409.024750,49.425247 
	C409.176849,55.703781 409.533417,61.977356 410.127014,69.014412 
M359.402008,69.690567 
	C359.928253,68.142265 360.890686,66.599541 360.910522,65.044777 
	C361.046356,54.399387 361.099396,43.749706 360.935425,33.105160 
	C360.859253,28.159529 357.671661,25.187513 352.636841,25.040592 
	C347.484070,24.890228 342.318787,24.873470 337.167511,25.048712 
	C332.197388,25.217793 329.118286,28.279160 329.051422,33.292870 
	C328.911682,43.771801 328.909241,54.255302 329.054413,64.734100 
	C329.123688,69.735626 332.217346,72.776962 337.200928,72.951736 
	C342.185760,73.126572 347.202850,73.268990 352.162628,72.878166 
	C354.460785,72.697083 356.656555,71.216667 359.402008,69.690567 
M277.679871,71.413216 
	C278.784271,69.108086 280.762787,66.832634 280.842255,64.492706 
	C281.192017,54.190445 281.082947,43.868504 280.957458,33.555916 
	C280.892761,28.239717 277.838928,25.191717 272.589386,25.039295 
	C267.436707,24.889687 262.271332,24.868958 257.120667,25.050829 
	C252.169785,25.225645 249.113968,28.309273 249.049271,33.339378 
	C248.914490,43.818096 248.977066,54.299938 249.028488,64.780151 
	C249.047867,68.725311 251.063187,72.246025 254.797043,72.454964 
	C262.165924,72.867294 269.599030,72.131813 277.679871,71.413216 
M242.499954,217.000610 
	C234.077744,217.000610 225.655548,217.000610 217.298203,217.000610 
	C217.298203,222.648209 217.298203,227.712234 217.298203,232.710114 
	C233.317810,232.710114 249.038269,232.710114 264.702026,232.710114 
	C264.702026,227.350677 264.702026,222.287094 264.702026,217.000610 
	C257.437469,217.000610 250.468674,217.000610 242.499954,217.000610 
M194.422150,232.999390 
	C196.524536,232.999390 198.626923,232.999390 200.719070,232.999390 
	C200.719070,227.385849 200.719070,222.321167 200.719070,217.274628 
	C184.715820,217.274628 168.994400,217.274628 153.283234,217.274628 
	C153.283234,222.617630 153.283234,227.681778 153.283234,232.999390 
	C166.855042,232.999390 180.145737,232.999390 194.422150,232.999390 
M283.688049,216.999542 
	C282.792572,217.780090 281.171112,218.518387 281.122803,219.348221 
	C280.865387,223.772217 281.001617,228.219101 281.001617,232.999268 
	C294.224670,232.999268 306.986877,233.019562 319.748627,232.953873 
	C320.604553,232.949463 321.760864,232.535736 322.262878,231.903671 
	C326.095306,227.078186 329.799896,222.151154 333.740540,216.999023 
	C317.194427,216.999023 300.927307,216.999023 283.688049,216.999542 
M24.996809,274.305969 
	C24.996809,276.109375 24.996809,277.912781 24.996809,279.766785 
	C40.024803,277.638550 53.767956,263.873077 55.716915,249.242493 
	C45.609859,249.242493 35.516335,249.242493 24.996807,249.242493 
	C24.996807,257.438995 24.996807,265.396271 24.996809,274.305969 
M31.534500,363.806763 
	C29.520664,363.153503 27.506830,362.500275 25.377834,361.809662 
	C25.377834,372.480652 25.377834,382.668182 25.377834,392.648987 
	C35.773289,392.648987 45.785194,392.648987 56.131866,392.648987 
	C52.646049,378.966888 44.793499,369.562134 31.534500,363.806763 
M345.003113,368.641296 
	C345.003113,366.517242 345.003113,364.393188 345.003113,362.211273 
	C329.858063,364.435486 316.015564,378.348938 314.309570,392.744659 
	C324.413239,392.744659 334.508362,392.744659 345.003113,392.744659 
	C345.003113,384.864410 345.003113,377.236572 345.003113,368.641296 
M387.395325,345.000977 
	C389.165283,345.000977 390.935242,345.000977 392.803864,345.000977 
	C392.803864,338.717682 392.803864,332.956390 392.803864,328.079132 
	C382.150085,328.079132 371.696564,328.079132 361.279907,328.079132 
	C361.279907,333.267639 361.279907,339.005219 361.279907,345.000977 
	C369.845215,345.000977 378.132324,345.000977 387.395325,345.000977 
z"/>
<path fill="#E6E9ED" opacity="1.000000" stroke="none" 
	d="
M488.999542,187.000000 
	C488.999542,246.823730 489.000824,306.147461 488.998230,365.471191 
	C488.997833,374.686035 486.702301,376.997131 477.547638,376.998047 
	C440.386993,377.001648 403.226349,376.999542 366.065704,376.999542 
	C364.581970,376.999542 363.098236,376.999542 361.309937,376.999542 
	C361.309937,371.743713 361.309937,366.674377 361.309937,361.186951 
	C398.277710,361.186951 435.345520,361.186951 472.706055,361.186951 
	C472.706055,286.382202 472.706055,211.987457 472.706055,137.295929 
	C361.056976,137.295929 249.333206,137.295929 137.196808,137.295929 
	C137.196808,168.932877 137.196808,200.667938 137.196808,232.700348 
	C131.721954,232.700348 126.652023,232.700348 121.288971,232.700348 
	C121.288971,195.700882 121.288971,158.634872 121.288971,121.284302 
	C243.634491,121.284302 366.023499,121.284302 488.999542,121.284302 
	C488.999542,142.981064 488.999542,164.740540 488.999542,187.000000 
z"/>
<path fill="#FAD56F" opacity="1.000000" stroke="none" 
	d="
M235.357712,372.359558 
	C218.457825,388.743988 198.174210,394.288269 175.572662,392.932556 
	C174.512314,392.868958 173.020599,392.052155 172.560562,391.158478 
	C168.143463,382.578064 161.616043,376.154785 152.895798,371.544830 
	C153.619415,359.248718 152.896927,347.224823 144.870667,336.915100 
	C136.898865,326.675323 126.326584,321.593170 113.523521,320.897675 
	C111.576111,298.288422 127.272964,265.920532 159.387726,253.722702 
	C190.829025,241.780670 226.395157,253.151794 245.095123,281.418457 
	C264.017944,310.022064 260.177887,346.739532 235.357712,372.359558 
M197.667053,330.563812 
	C200.629730,333.075592 201.875504,336.128693 200.349136,339.883301 
	C198.750107,343.816650 195.559418,345.111603 191.523346,345.018982 
	C187.692734,344.931091 183.858475,345.006409 180.025848,344.999268 
	C172.706757,344.985626 171.152725,343.925385 168.573746,337.218384 
	C163.446625,337.218384 158.319504,337.218384 151.696030,337.218384 
	C153.941818,342.401215 155.328140,347.217407 157.932602,351.246124 
	C162.235352,357.901825 169.249512,360.520172 177.290466,361.315338 
	C177.290466,366.775665 177.290466,371.854980 177.290466,376.778290 
	C182.700821,376.778290 187.650604,376.778290 192.987900,376.778290 
	C192.987900,371.470337 192.987900,366.368164 192.987900,361.288330 
	C193.845886,361.127228 194.314041,361.020264 194.787827,360.953094 
	C208.656174,358.986115 217.736481,348.525818 216.948837,335.419189 
	C216.172119,322.494324 205.540878,313.073242 191.634659,313.004272 
	C186.968948,312.981110 182.300659,313.089447 177.637848,312.970093 
	C172.505341,312.838776 169.124100,309.671906 169.032501,305.154724 
	C168.936935,300.442108 172.421127,297.154938 177.822235,297.020355 
	C181.652512,296.924896 185.498657,297.189758 189.317078,296.956268 
	C195.476059,296.579590 200.231216,298.114288 201.218430,304.814270 
	C206.728256,304.814270 211.698166,304.814270 218.297989,304.814270 
	C215.979065,299.520813 214.541931,294.586334 211.849350,290.473877 
	C207.602249,283.987152 200.705658,281.452118 192.797852,280.735992 
	C192.797852,275.355927 192.797852,270.274811 192.797852,265.344666 
	C187.284805,265.344666 182.215805,265.344666 176.923294,265.344666 
	C176.923294,270.655212 176.923294,275.624176 176.923294,280.660248 
	C174.952499,281.049133 173.174011,281.305542 171.446381,281.756653 
	C161.868271,284.257629 155.788300,290.365204 153.635117,299.981018 
	C151.509903,309.471832 154.657928,317.409393 161.985062,323.617462 
	C166.462784,327.411285 171.815338,328.913666 177.698105,329.049469 
	C184.135101,329.198059 190.562958,329.742645 197.667053,330.563812 
z"/>
<path fill="#FE816E" opacity="1.000000" stroke="none" 
	d="
M120.998932,100.842300 
	C120.998856,89.530571 120.988525,78.701843 121.002197,67.873154 
	C121.012817,59.455288 123.515404,57.006519 132.105209,57.002605 
	C138.601822,56.999641 145.098465,57.026756 151.595001,57.059948 
	C151.893845,57.061474 152.191711,57.254070 153.003296,57.535927 
	C153.003296,59.807045 152.970413,62.251541 153.008713,64.694923 
	C153.226990,78.618423 163.479767,88.810677 177.481827,88.987106 
	C182.478897,89.050072 187.478058,89.048508 192.475174,88.987610 
	C206.695526,88.814339 216.839844,78.553780 216.994720,64.230164 
	C217.018097,62.068298 216.997955,59.905964 216.997955,57.371826 
	C222.174896,57.371826 227.242874,57.371826 233.002472,57.371826 
	C233.002472,59.616894 232.975983,62.038857 233.006821,64.460091 
	C233.188034,78.686569 243.424774,88.847260 257.746704,88.990349 
	C262.577484,89.038620 267.409546,89.038139 272.240356,88.990448 
	C286.560730,88.849083 296.802429,78.690704 296.993042,64.465019 
	C297.023895,62.162678 296.997406,59.859566 296.997406,57.279625 
	C302.379333,57.279625 307.441101,57.279625 313.003357,57.279625 
	C313.003357,59.830894 312.969543,62.278522 313.008972,64.724968 
	C313.233002,78.635788 323.499084,88.814430 337.511871,88.987831 
	C342.342407,89.047600 347.174530,89.030235 352.005493,88.992073 
	C366.631531,88.876541 376.841736,78.737915 376.994843,64.200142 
	C377.017578,62.041466 376.997986,59.882343 376.997986,57.361382 
	C382.199829,57.361382 387.264801,57.361382 393.004303,57.361382 
	C393.004303,59.799557 392.959869,62.395649 393.011749,64.989815 
	C393.283600,78.584991 403.575287,88.777229 417.277039,88.984909 
	C422.107208,89.058128 426.939545,89.023529 431.770630,88.993462 
	C446.706421,88.900513 456.873901,78.793091 456.995758,63.935249 
	C457.013275,61.802162 456.998199,59.668816 456.998199,57.049019 
	C465.439026,57.049019 473.555023,56.816158 481.648468,57.142574 
	C486.006653,57.318344 488.824280,60.266762 488.890381,64.643417 
	C489.091003,77.928452 488.963043,91.218437 488.963043,105.001152 
	C487.166992,105.001152 485.719940,105.001152 484.272888,105.001152 
	C364.823853,105.001152 245.374847,105.002342 125.925827,104.992981 
	C123.418076,104.992783 120.160904,105.875122 120.998932,100.842300 
z"/>
<path fill="#B3DC7E" opacity="1.000000" stroke="none" 
	d="
M272.308960,310.755371 
	C269.042175,285.052582 256.702606,265.117859 236.030579,249.283310 
	C262.713989,249.283310 288.589478,249.283310 314.377869,249.283310 
	C314.377869,258.953613 313.063660,268.850464 314.663910,278.251190 
	C317.585663,295.415436 327.442017,308.743164 341.992157,318.367035 
	C344.209778,319.833832 345.144867,321.232025 345.069458,323.913879 
	C344.868774,331.049866 345.001251,338.195190 345.001251,345.375977 
	C318.776459,350.997101 302.990356,366.725098 297.420013,392.805603 
	C277.240234,392.805603 257.115204,392.805603 236.263519,392.805603 
	C262.683105,371.646118 275.577209,344.911835 272.308960,310.755371 
z"/>
<path fill="#EFCFB3" opacity="1.000000" stroke="none" 
	d="
M104.979645,391.000000 
	C104.985420,376.005981 104.968163,361.511871 105.005653,347.017944 
	C105.025375,339.392059 108.972862,336.042023 116.433357,337.204071 
	C128.119400,339.024323 136.731613,348.793121 136.965286,360.714050 
	C137.105576,367.870331 136.991043,375.031647 136.991043,382.699280 
	C154.182510,387.206146 162.471954,398.378967 160.893417,416.659180 
	C166.192749,416.659180 171.265884,416.659180 176.793640,416.659180 
	C176.901672,414.424347 177.018158,412.014404 177.149261,409.301941 
	C200.898636,409.301941 224.635956,409.301941 248.799255,409.301941 
	C248.644638,416.948212 246.686295,424.080261 242.204636,430.166260 
	C235.891449,438.739502 229.124466,446.983826 222.371918,455.221619 
	C221.513412,456.268890 219.574860,456.922577 218.133682,456.927734 
	C190.645370,457.026581 163.156433,457.035522 135.668350,456.907806 
	C134.135132,456.900665 132.137527,455.942139 131.154999,454.761536 
	C124.978867,447.340210 118.914497,439.818420 113.038139,432.157288 
	C107.607300,425.076996 104.958984,416.952698 104.977013,407.993469 
	C104.988075,402.495667 104.979240,396.997803 104.979645,391.000000 
z"/>
<path fill="#B3DC7E" opacity="1.000000" stroke="none" 
	d="
M36.317337,348.516724 
	C32.459618,347.387299 28.956375,346.428162 25.225647,345.406738 
	C25.225647,329.206604 25.225647,312.941498 25.225647,296.401245 
	C37.374931,294.263336 47.976517,289.115326 56.656582,280.356842 
	C65.210396,271.725708 70.299576,261.270050 72.358284,249.382553 
	C73.075089,249.223816 73.552673,249.025909 74.030418,249.025528 
	C93.678413,249.010010 113.326416,249.012268 132.974411,249.012268 
	C133.378128,249.453400 133.781845,249.894516 134.185562,250.335648 
	C133.294937,250.639984 132.230209,250.726791 131.538895,251.280136 
	C108.338799,269.850342 96.709076,293.928955 96.997841,323.736053 
	C97.015022,325.510132 96.302399,327.661438 95.177727,329.010651 
	C90.923759,334.114014 88.927048,339.826508 88.969475,346.452515 
	C89.067459,361.752960 89.000595,377.054474 89.000595,392.677673 
	C83.348915,392.677673 77.957489,392.677673 72.470497,392.677673 
	C68.232147,371.696899 56.684910,356.729736 36.317337,348.516724 
z"/>
<path fill="#FD816D" opacity="1.000000" stroke="none" 
	d="
M424.350220,257.788940 
	C428.250214,284.836823 410.113007,308.536285 382.771027,312.667328 
	C357.479401,316.488586 333.321564,297.539307 329.317261,270.738556 
	C325.531036,245.397415 344.472626,221.282974 371.284180,217.310760 
	C395.953949,213.655869 420.335266,232.087250 424.350220,257.788940 
M387.584900,251.079315 
	C381.504913,257.191620 375.424957,263.303925 368.401611,270.364624 
	C365.212677,266.264709 362.364380,262.602722 359.689117,259.163239 
	C355.106140,263.571777 351.441406,267.097046 348.152191,270.261108 
	C355.286346,277.460205 362.278687,284.516174 368.523682,290.817993 
	C380.744537,278.635132 393.168304,266.249969 405.379120,254.077103 
	C402.390167,250.930130 398.968903,247.328003 394.590546,242.718170 
	C392.320374,245.460983 390.203094,248.019043 387.584900,251.079315 
z"/>
<path fill="#FEE9A6" opacity="1.000000" stroke="none" 
	d="
M457.000977,245.000000 
	C457.000977,278.454407 457.000977,311.408813 457.000977,344.681946 
	C441.092834,344.681946 425.366302,344.681946 409.016571,344.681946 
	C409.016571,337.077148 408.953339,329.322510 409.106476,321.572144 
	C409.123322,320.721497 410.220856,319.636627 411.088470,319.095154 
	C445.338440,297.721008 452.440094,248.316452 420.443237,218.003494 
	C420.359741,217.924393 420.373535,217.742584 420.269775,217.303879 
	C432.360992,217.303879 444.386414,217.303879 457.000977,217.303879 
	C457.000977,226.317108 457.000977,235.408554 457.000977,245.000000 
z"/>
<path fill="#FFEAA7" opacity="1.000000" stroke="none" 
	d="
M286.117462,200.999390 
	C284.181183,200.999390 282.732666,200.999390 281.157837,200.999390 
	C281.157837,184.880737 281.157837,169.272827 281.157837,153.332520 
	C296.882782,153.332520 312.610443,153.332520 328.669617,153.332520 
	C328.669617,168.887161 328.669617,184.614746 328.669617,200.999390 
	C314.761414,200.999390 300.683319,200.999390 286.117462,200.999390 
z"/>
<path fill="#FFEAA7" opacity="1.000000" stroke="none" 
	d="
M345.000580,172.000534 
	C345.000580,165.528732 345.000580,159.556839 345.000580,153.293701 
	C360.960785,153.293701 376.686127,153.293701 392.706238,153.293701 
	C392.706238,168.960663 392.706238,184.686020 392.706238,200.706177 
	C377.039459,200.706177 361.314117,200.706177 345.000580,200.706177 
	C345.000580,191.348495 345.000580,181.924469 345.000580,172.000534 
z"/>
<path fill="#FFEAA7" opacity="1.000000" stroke="none" 
	d="
M456.999420,187.990143 
	C456.999420,192.462906 456.999420,196.437317 456.999420,200.704529 
	C441.042694,200.704529 425.317108,200.704529 409.295258,200.704529 
	C409.295258,185.042252 409.295258,169.316696 409.295258,153.295074 
	C424.958160,153.295074 440.683716,153.295074 456.999420,153.295074 
	C456.999420,164.648880 456.999420,176.070328 456.999420,187.990143 
z"/>
<path fill="#FFEAA7" opacity="1.000000" stroke="none" 
	d="
M264.999420,182.999039 
	C264.999420,189.137604 264.999420,194.776489 264.999420,200.706421 
	C249.038956,200.706421 233.313644,200.706421 217.293594,200.706421 
	C217.293594,185.039001 217.293594,169.313614 217.293594,153.293625 
	C232.960922,153.293625 248.686295,153.293625 264.999420,153.293625 
	C264.999420,162.985428 264.999420,172.742386 264.999420,182.999039 
z"/>
<path fill="#FFEAA7" opacity="1.000000" stroke="none" 
	d="
M200.999390,178.999908 
	C200.999390,186.471008 200.999390,193.442154 200.999390,200.705505 
	C185.040894,200.705505 169.315521,200.705505 153.294586,200.705505 
	C153.294586,185.041061 153.294586,169.315765 153.294586,153.294647 
	C168.958801,153.294647 184.684174,153.294647 200.999390,153.294647 
	C200.999390,161.650055 200.999390,170.075012 200.999390,178.999908 
z"/>
<path fill="#FF826E" opacity="1.000000" stroke="none" 
	d="
M148.000000,473.000671 
	C176.438049,473.000671 204.376099,473.000671 232.656479,473.000671 
	C232.656479,478.251831 232.656479,483.309326 232.656479,488.685486 
	C195.721954,488.685486 158.704819,488.685486 121.343834,488.685486 
	C121.343834,483.747375 121.343834,478.692627 121.343834,473.000671 
	C129.998947,473.000671 138.749481,473.000671 148.000000,473.000671 
z"/>
<path fill="#A9B1BC" opacity="1.000000" stroke="none" 
	d="
M174.119339,72.377853 
	C170.112045,70.483734 168.953751,67.457008 168.977875,63.643089 
	C169.039978,53.829479 168.940750,44.014744 169.019852,34.201382 
	C169.069733,28.013369 172.037201,25.106642 178.251572,25.013672 
	C183.074249,24.941526 187.903091,24.881365 192.721619,25.042456 
	C197.725281,25.209736 200.868515,28.210291 200.939926,33.188148 
	C201.092621,43.831448 201.114288,54.481064 200.914154,65.122910 
	C200.827347,69.739021 197.999893,72.708931 193.400299,72.873787 
	C187.109711,73.099251 180.796524,72.694199 174.119339,72.377853 
z"/>
<path fill="#A9B1BC" opacity="1.000000" stroke="none" 
	d="
M409.964172,68.633743 
	C409.533417,61.977356 409.176849,55.703781 409.024750,49.425247 
	C408.895874,44.105499 408.892487,38.776993 409.037659,33.457935 
	C409.181580,28.186625 412.210754,25.181293 417.499634,25.034710 
	C422.486053,24.896509 427.482208,24.898209 432.468750,25.033730 
	C437.766022,25.177694 440.880676,28.169943 440.951630,33.434032 
	C441.090576,43.745373 441.083588,54.060955 440.959473,64.372643 
	C440.892853,69.906494 437.784485,72.848457 432.158691,72.977829 
	C427.503540,73.084892 422.778168,73.469696 418.210724,72.828293 
	C415.393188,72.432632 412.813477,70.343330 409.964172,68.633743 
z"/>
<path fill="#A9B1BC" opacity="1.000000" stroke="none" 
	d="
M359.150391,70.007935 
	C356.656555,71.216667 354.460785,72.697083 352.162628,72.878166 
	C347.202850,73.268990 342.185760,73.126572 337.200928,72.951736 
	C332.217346,72.776962 329.123688,69.735626 329.054413,64.734100 
	C328.909241,54.255302 328.911682,43.771801 329.051422,33.292870 
	C329.118286,28.279160 332.197388,25.217793 337.167511,25.048712 
	C342.318787,24.873470 347.484070,24.890228 352.636841,25.040592 
	C357.671661,25.187513 360.859253,28.159529 360.935425,33.105160 
	C361.099396,43.749706 361.046356,54.399387 360.910522,65.044777 
	C360.890686,66.599541 359.928253,68.142265 359.150391,70.007935 
z"/>
<path fill="#A9B1BC" opacity="1.000000" stroke="none" 
	d="
M277.342712,71.642105 
	C269.599030,72.131813 262.165924,72.867294 254.797043,72.454964 
	C251.063187,72.246025 249.047867,68.725311 249.028488,64.780151 
	C248.977066,54.299938 248.914490,43.818096 249.049271,33.339378 
	C249.113968,28.309273 252.169785,25.225645 257.120667,25.050829 
	C262.271332,24.868958 267.436707,24.889687 272.589386,25.039295 
	C277.838928,25.191717 280.892761,28.239717 280.957458,33.555916 
	C281.082947,43.868504 281.192017,54.190445 280.842255,64.492706 
	C280.762787,66.832634 278.784271,69.108086 277.342712,71.642105 
z"/>
<path fill="#FFEAA7" opacity="1.000000" stroke="none" 
	d="
M242.999908,217.000610 
	C250.468674,217.000610 257.437469,217.000610 264.702026,217.000610 
	C264.702026,222.287094 264.702026,227.350677 264.702026,232.710114 
	C249.038269,232.710114 233.317810,232.710114 217.298203,232.710114 
	C217.298203,227.712234 217.298203,222.648209 217.298203,217.000610 
	C225.655548,217.000610 234.077744,217.000610 242.999908,217.000610 
z"/>
<path fill="#FFEAA7" opacity="1.000000" stroke="none" 
	d="
M193.929291,232.999390 
	C180.145737,232.999390 166.855042,232.999390 153.283234,232.999390 
	C153.283234,227.681778 153.283234,222.617630 153.283234,217.274628 
	C168.994400,217.274628 184.715820,217.274628 200.719070,217.274628 
	C200.719070,222.321167 200.719070,227.385849 200.719070,232.999390 
	C198.626923,232.999390 196.524536,232.999390 193.929291,232.999390 
z"/>
<path fill="#FEE9A6" opacity="1.000000" stroke="none" 
	d="
M284.174133,216.999283 
	C300.927307,216.999023 317.194427,216.999023 333.740540,216.999023 
	C329.799896,222.151154 326.095306,227.078186 322.262878,231.903671 
	C321.760864,232.535736 320.604553,232.949463 319.748627,232.953873 
	C306.986877,233.019562 294.224670,232.999268 281.001617,232.999268 
	C281.001617,228.219101 280.865387,223.772217 281.122803,219.348221 
	C281.171112,218.518387 282.792572,217.780090 284.174133,216.999283 
z"/>
<path fill="#9FD267" opacity="1.000000" stroke="none" 
	d="
M24.996807,273.829742 
	C24.996807,265.396271 24.996807,257.438995 24.996807,249.242493 
	C35.516335,249.242493 45.609859,249.242493 55.716915,249.242493 
	C53.767956,263.873077 40.024803,277.638550 24.996809,279.766785 
	C24.996809,277.912781 24.996809,276.109375 24.996807,273.829742 
z"/>
<path fill="#9FD267" opacity="1.000000" stroke="none" 
	d="
M31.903198,363.925018 
	C44.793499,369.562134 52.646049,378.966888 56.131866,392.648987 
	C45.785194,392.648987 35.773289,392.648987 25.377834,392.648987 
	C25.377834,382.668182 25.377834,372.480652 25.377834,361.809662 
	C27.506830,362.500275 29.520664,363.153503 31.903198,363.925018 
z"/>
<path fill="#9FD267" opacity="1.000000" stroke="none" 
	d="
M345.003113,369.125000 
	C345.003113,377.236572 345.003113,384.864410 345.003113,392.744659 
	C334.508362,392.744659 324.413239,392.744659 314.309570,392.744659 
	C316.015564,378.348938 329.858063,364.435486 345.003113,362.211273 
	C345.003113,364.393188 345.003113,366.517242 345.003113,369.125000 
z"/>
<path fill="#FEE9A6" opacity="1.000000" stroke="none" 
	d="
M386.907379,345.000977 
	C378.132324,345.000977 369.845215,345.000977 361.279907,345.000977 
	C361.279907,339.005219 361.279907,333.267639 361.279907,328.079132 
	C371.696564,328.079132 382.150085,328.079132 392.803864,328.079132 
	C392.803864,332.956390 392.803864,338.717682 392.803864,345.000977 
	C390.935242,345.000977 389.165283,345.000977 386.907379,345.000977 
z"/>
<path fill="#020201" opacity="1.000000" stroke="none" 
	d="
M197.330933,330.339233 
	C190.562958,329.742645 184.135101,329.198059 177.698105,329.049469 
	C171.815338,328.913666 166.462784,327.411285 161.985062,323.617462 
	C154.657928,317.409393 151.509903,309.471832 153.635117,299.981018 
	C155.788300,290.365204 161.868271,284.257629 171.446381,281.756653 
	C173.174011,281.305542 174.952499,281.049133 176.923294,280.660248 
	C176.923294,275.624176 176.923294,270.655212 176.923294,265.344666 
	C182.215805,265.344666 187.284805,265.344666 192.797852,265.344666 
	C192.797852,270.274811 192.797852,275.355927 192.797852,280.735992 
	C200.705658,281.452118 207.602249,283.987152 211.849350,290.473877 
	C214.541931,294.586334 215.979065,299.520813 218.297989,304.814270 
	C211.698166,304.814270 206.728256,304.814270 201.218430,304.814270 
	C200.231216,298.114288 195.476059,296.579590 189.317078,296.956268 
	C185.498657,297.189758 181.652512,296.924896 177.822235,297.020355 
	C172.421127,297.154938 168.936935,300.442108 169.032501,305.154724 
	C169.124100,309.671906 172.505341,312.838776 177.637848,312.970093 
	C182.300659,313.089447 186.968948,312.981110 191.634659,313.004272 
	C205.540878,313.073242 216.172119,322.494324 216.948837,335.419189 
	C217.736481,348.525818 208.656174,358.986115 194.787827,360.953094 
	C194.314041,361.020264 193.845886,361.127228 192.987900,361.288330 
	C192.987900,366.368164 192.987900,371.470337 192.987900,376.778290 
	C187.650604,376.778290 182.700821,376.778290 177.290466,376.778290 
	C177.290466,371.854980 177.290466,366.775665 177.290466,361.315338 
	C169.249512,360.520172 162.235352,357.901825 157.932602,351.246124 
	C155.328140,347.217407 153.941818,342.401215 151.696030,337.218384 
	C158.319504,337.218384 163.446625,337.218384 168.574768,337.215332 
	C171.152725,343.925385 172.706757,344.985626 180.025848,344.999268 
	C183.858475,345.006409 187.692734,344.931091 191.523346,345.018982 
	C195.559418,345.111603 198.750107,343.816650 200.349136,339.883301 
	C201.875504,336.128693 200.629730,333.075592 197.330933,330.339233 
z"/>
<path fill="#060303" opacity="1.000000" stroke="none" 
	d="
M387.835358,250.828217 
	C390.203094,248.019043 392.320374,245.460983 394.590546,242.718170 
	C398.968903,247.328003 402.390167,250.930130 405.379120,254.077103 
	C393.168304,266.249969 380.744537,278.635132 368.523682,290.817993 
	C362.278687,284.516174 355.286346,277.460205 348.152191,270.261108 
	C351.441406,267.097046 355.106140,263.571777 359.689117,259.163239 
	C362.364380,262.602722 365.212677,266.264709 368.401611,270.364624 
	C375.424957,263.303925 381.504913,257.191620 387.835358,250.828217 
z"/>
</svg>